<svg version="1.1" id="Layer_1" xmlns="http://www.w3.org/2000/svg" xmlns:xlink="http://www.w3.org/1999/xlink" x="0" y="0" viewBox="0 0 960 960" style="enable-background:new 0 0 960 960" xml:space="preserve">
    <style>
        .st0{fill:#2FBD94FF}.st9{fill:none;stroke:#2FBD94FF;stroke-width:6.5201;stroke-linecap:round;stroke-miterlimit:10}.st12{fill:#DA5A36}
    </style>
    <g id="Layer_1_1_">
        <path class="st0" d="m362.4 744.2-225.3-39.1V234l225.3 39.1zM597.6 711.6l-235.2 32.6V273.1l235.2-32.6z"/>
        <path class="st0" d="m822.9 747.5-225.3-35.9V240.5l225.3 35.9z"/>
        <path style="fill:#C7FFC7" d="m362.4 708.7-190.3-32.6V276l190.3 32.6z"/>
        <path style="fill:#C7FFC7" d="m597.6 676.1-235.2 32.6V308.6L597.6 276z"/>
        <path style="fill:#C7FFC7" d="m787.9 708.7-190.3-32.6V276l190.3 32.6z"/>
        <defs>
            <path id="SVGID_1_" d="m597.6 276-235.2 32.6L172.1 276v400.1l190.3 32.6 235.2-32.6 190.3 32.6V308.6z"/>
        </defs>
        <clipPath id="SVGID_2_">
            <use xlink:href="#SVGID_1_" style="overflow:visible"/>
        </clipPath>
        <path d="M224 471.1c-2.5 1.1-5 2.4-6.7 4.6-3.3 4.5-1.3 11.4 3.1 15 4.3 3.6 10.2 4.7 15.7 5.4 4 .5 8.7 1.2 10.7 4.8 3.1 5.5-2.8 11.7-4 17.9-1.4 7.5 4.4 14.9 3 22.4-.8 4.4-4.2 8.4-3.9 12.9.4 5.5 5.7 9 10 12.4s8.2 9.5 5 14c-2 2.8-6.3 4.1-6.7 7.5-.2 1.8.9 3.5 2.1 4.9 13.6 16.2 38.7 12.9 59.5 16.7 5.3 1 10.7 2.6 14.4 6.5 8.9 9.4 2.7 25.7 8.6 37.2 2.2 4.4 6.1 7.8 8.5 12.1 8.8 15.6-4 35.6.8 52.8 1 3.6 3 7.3 6.4 8.8 6.3 2.8 13.4-3.3 15.3-10 1.9-6.6.6-13.7 1.5-20.6 1.6-12.1 10-22.3 19.5-29.9 9.5-7.6 20.4-13.4 30-21 18.7-14.7 31.7-36.4 36.1-59.8.8-4 1.3-8.3 3.5-11.7 4.1-6.5 12.7-8.5 18-14.1.8-.8 1.5-1.9 1.5-3 0-1-.7-1.9-1.4-2.7-11-13-29.6-19-46-14.8-7.7 2-15 6-23 6.4-15 .8-28-14.2-27.2-28.8.5-9.3 7.3-14.3 1.5-22.8-3.5-5.1-10.4-9.4-14.5-14.9-18.3-25.1-44.1-26.3-73.8-24.7-23.2 1.2-46.3 6.8-67.5 16.5z" style="clip-path:url(#SVGID_2_);fill:#2FBD94FF"/>
        <defs>
            <path id="SVGID_3_" d="m597.6 276-235.2 32.6L172.1 276v400.1l190.3 32.6 235.2-32.6 190.3 32.6V308.6z"/>
        </defs>
        <clipPath id="SVGID_4_">
            <use xlink:href="#SVGID_3_" style="overflow:visible"/>
        </clipPath>
        <path d="M809.6 542c-32.6-10.1-68.2-10-100.7.2-4.7 1.5-9.8 3.6-11.9 8.1-2.1 4.5 1.9 11.3 6.5 9.7.2 6.2-7.8 8.8-14 9.5-14.9 1.7-29.8 3.3-44.7 5-5.3 3.9-3.1 13 2.4 16.5s12.6 3.2 19.1 2.8c17.3-1.2 34.7-2 52.1-2.6 10.5-.3 32.9-5.2 41.7-.5-2.4 7.1-12.7 7.2-14.3 14.2-.7 3.2 1.6 6.6 4.5 8.1 3 1.5 6.4 1.7 9.8 1.8 10.9.4 21.7.7 32.6 1.1 1.3 0 2.8.2 3.7 1.1 1.3 1.4.7 3.9-.8 5.1s-3.6 1.4-5.5 1.6c-12.1.9-24.4.1-36.2 3-4.6 1.1-9.9 3.8-10.3 8.6-.2 3.2 2.1 6.3 5 7.8s6.2 1.8 9.5 2.1c18.2 1.4 33.2.9 50.5-3.5 18-4.6 36.1.6 37.9-23.4 1.5-20.4-.9-41.1-7.1-60.6-1.9-6-6.4-13.1-12.4-11.4" style="clip-path:url(#SVGID_4_);fill:#2FBD94FF"/>
        <defs>
            <path id="SVGID_5_" d="m597.6 276-235.2 32.6L172.1 276v400.1l190.3 32.6 235.2-32.6 190.3 32.6V308.6z"/>
        </defs>
        <clipPath id="SVGID_6_">
            <use xlink:href="#SVGID_5_" style="overflow:visible"/>
        </clipPath>
        <path d="M424.5 322.4c8.1 2.3 16.8 9.9 13.4 17.6-1.4 3.2-4.6 5.3-7.2 7.7-2.6 2.4-4.7 6.2-3.2 9.4 2.5 5.2 10.3 2.8 15.5.5 9-4 19-5.6 28.8-4.5 4.4.5 9.3 1.9 11.4 5.8 2.2 4.1.5 9.4 2.2 13.7 2 5.2 8.6 7.6 14.1 6.4s10-5 13.9-9c8.8-9.2 15.7-23.9 8.1-34.1-12.4-16.8-30.4-10.7-29.4-37.5.6-13.8 4.9-30.7-8.2-40.5-21.7-16.2-57.6 9.1-72.2 24.5-19.4 20.4-11 33.2 12.8 40z" style="clip-path:url(#SVGID_6_);fill:#2FBD94FF"/>
        <defs>
            <path id="SVGID_7_" d="m597.6 276-235.2 32.6L172.1 276v400.1l190.3 32.6 235.2-32.6 190.3 32.6V308.6z"/>
        </defs>
        <clipPath id="SVGID_8_">
            <use xlink:href="#SVGID_7_" style="overflow:visible"/>
        </clipPath>
        <path d="M428.5 539.4c-7.7 2-15 6-23 6.4-15 .8-28-14.2-27.2-28.8.5-9.3 7.3-14.3 1.5-22.8-3.5-5.1-10.4-9.4-14.5-14.9-.9-1.3-1.9-2.5-2.9-3.7V723c1.5-1.8 2.7-3.9 3.3-6 1.9-6.6.6-13.7 1.5-20.6 1.6-12.1 10-22.3 19.5-29.9 9.5-7.6 20.4-13.4 30-21 18.7-14.7 31.7-36.4 36.1-59.8.8-4 1.3-8.3 3.5-11.7 4.1-6.5 12.7-8.5 18-14.1.8-.8 1.5-1.9 1.5-3 0-1-.7-1.9-1.4-2.7-10.8-13-29.4-19-45.9-14.8z" style="clip-path:url(#SVGID_8_);fill:#2FBD94FF"/>
        <defs>
            <path id="SVGID_9_" d="m597.6 276-235.2 32.6L172.1 276v400.1l190.3 32.6 235.2-32.6 190.3 32.6V308.6z"/>
        </defs>
        <clipPath id="SVGID_10_">
            <use xlink:href="#SVGID_9_" style="overflow:visible"/>
        </clipPath>
        <g style="clip-path:url(#SVGID_10_)">
            <path class="st9" d="M635.2 433h8.2"/>
            <path d="M659.7 433h26.4c22.8 0 41.3 18.5 41.3 41.3v.9c0 22.8-18.5 41.3-41.3 41.3H489.4c-22.8 0-41.3-18.5-41.3-41.3v-40.9c0-22.8-18.5-41.3-41.3-41.3H188.4" style="fill:none;stroke:#f8df88;stroke-width:6.5201;stroke-linecap:round;stroke-miterlimit:10;stroke-dasharray:16.3184,16.3184"/>
            <path class="st9" d="M180.2 393h-8.1"/>
        </g>
        <defs>
            <path id="SVGID_11_" d="m597.6 276-235.2 32.6L172.1 276v400.1l190.3 32.6 235.2-32.6 190.3 32.6V308.6z"/>
        </defs>
        <clipPath id="SVGID_12_">
            <use xlink:href="#SVGID_11_" style="overflow:visible"/>
        </clipPath>
        <path d="M407.7 656h152.1c20.9 0 37.8-16.9 37.8-37.8v-11.8c0-20.9-16.9-37.8-37.8-37.8h0c-20.9 0-37.8-16.9-37.8-37.8V418.2c0-20.9 16.9-37.8 37.8-37.8h241.9" style="clip-path:url(#SVGID_12_);fill:none;stroke:#f8df88;stroke-width:6.5201;stroke-linecap:round;stroke-miterlimit:10;stroke-dasharray:16.3001"/>
        <path class="st12" d="M618.4 212.5c-41.6 0-75.3 33.7-75.3 75.3v.9c.1 4.7.5 9.4 1.4 13.9 2.1 13.4 7.1 34.5 19.2 57.8 20.5 39.5 54.6 72.6 54.6 72.6s34.1-33 54.6-72.6c12.1-23.4 17.1-44.5 19.2-57.8.9-4.5 1.4-9.1 1.4-13.9v-.9c.1-41.6-33.6-75.3-75.1-75.3zm0 119.1c-24.2 0-43.8-19.6-43.8-43.8 0-24.2 19.6-43.8 43.8-43.8s43.8 19.6 43.8 43.8c-.1 24.2-19.7 43.8-43.8 43.8zM309.7 374.3c-29.3 0-53.1 23.8-53.1 53.1v.6c0 3.3.4 6.6 1 9.8 1.5 9.4 5 24.3 13.5 40.8 14.5 27.9 38.5 51.2 38.5 51.2s24.1-23.3 38.5-51.2c8.6-16.5 12.1-31.4 13.5-40.8.6-3.2 1-6.4 1-9.8v-.6c.2-29.3-23.6-53.1-52.9-53.1zm0 84c-17.1 0-30.9-13.8-30.9-30.9s13.8-30.9 30.9-30.9 30.9 13.8 30.9 30.9-13.8 30.9-30.9 30.9z"/>
    </g>
</svg>
